# xmcd CD database file
#
# Track frame offsets:
#	150
#	24468
#	42585
#	59795
#	78630
#	100010
#	122643
#	140198
#	158803
#	183795
#
# Disc length: 2749 seconds
#
# Revision: 1
# Processed by: cddbd v1.4PL0 Copyright (c) Steve Scherf et al.
# Submitted via: CDex 1.40Beta9
#
DISCID=8a0abb0a
DTITLE=Ahl män' op d'r Eck' - Wood bahl Zick
DYEAR=1994
DGENRE=Blues
TTITLE0=A.M.E.
TTITLE1=Radar
TTITLE2=Wör ich
TTITLE3=Unendlich zu 1
TTITLE4=Autobahn
TTITLE5=Holzanzoch
TTITLE6=W.B.Z.
TTITLE7=Bröhl
TTITLE8=Samsdach ovend
TTITLE9=Millionär
EXTD=YEAR: 1994 ID3G: 0
EXTT0=
EXTT1=
EXTT2=
EXTT3=
EXTT4=
EXTT5=
EXTT6=
EXTT7=
EXTT8=
EXTT9=
PLAYORDER=
